<svg width="72" height="79" viewBox="0 0 72 79" fill="none" xmlns="http://www.w3.org/2000/svg">
<g filter="url(#filter0_d)">
<rect x="16" y="10" width="40" height="52" rx="6" fill="url(#paint0_linear)"/>
<path d="M56 56V46C55.0143 55.9762 49.6135 60.9011 40 62H50C53.3137 62 56 59.3137 56 56Z" fill="url(#paint1_linear)"/>
<path d="M45 47L27 47" stroke="white" stroke-width="2" stroke-linecap="round" stroke-linejoin="round"/>
<path d="M40 52L44.7587 47.5556C44.9126 47.4118 45 47.2106 45 47V47C45 46.7894 44.9126 46.5882 44.7587 46.4444L40 42" stroke="white" stroke-width="2" stroke-linecap="round" stroke-linejoin="round"/>
<rect x="20" y="17" width="32" height="2" rx="1" fill="white"/>
<rect x="20" y="23" width="18.2857" height="2" rx="1" fill="white"/>
<rect x="20" y="29" width="28.5714" height="2" rx="1" fill="white"/>
</g>
<defs>
<filter id="filter0_d" x="-10" y="-2" width="92" height="92" filterUnits="userSpaceOnUse" color-interpolation-filters="sRGB">
<feFlood flood-opacity="0" result="BackgroundImageFix"/>
<feColorMatrix in="SourceAlpha" type="matrix" values="0 0 0 0 0 0 0 0 0 0 0 0 0 0 0 0 0 0 127 0"/>
<feOffset dy="8"/>
<feGaussianBlur stdDeviation="5"/>
<feColorMatrix type="matrix" values="0 0 0 0 0.460887 0 0 0 0 0.670833 0 0 0 0 0.234792 0 0 0 0.3 0"/>
<feBlend mode="normal" in2="BackgroundImageFix" result="effect1_dropShadow"/>
<feBlend mode="normal" in="SourceGraphic" in2="effect1_dropShadow" result="shape"/>
</filter>
<linearGradient id="paint0_linear" x1="36" y1="10" x2="36" y2="62" gradientUnits="userSpaceOnUse">
<stop stop-color="#A1D66A"/>
<stop offset="1" stop-color="#7CB342"/>
</linearGradient>
<linearGradient id="paint1_linear" x1="48" y1="46" x2="48" y2="62" gradientUnits="userSpaceOnUse">
<stop stop-color="#BBEB89"/>
<stop offset="1" stop-color="#9FD765"/>
</linearGradient>
</defs>
</svg>
